<svg height="383pt" viewBox="1 -86 383.999 383" width="383pt" xmlns="http://www.w3.org/2000/svg"><path d="m384 40.222656-79.449219 39.726563h-304.550781c4.554688 23.679687 13.84375 46.199219 27.308594 66.207031h105.105468l-36.703124 55.144531c20.191406 7.582031 41.621093 11.332031 63.183593 11.058594 112.554688 0 145.65625-92.6875 145.65625-92.6875l79.449219 33.101563-19.863281-52.964844zm0 0" fill="#57aad3"/><path d="m72.828125 146.15625 13.242187 26.480469 13.238282-26.480469zm0 0" fill="#dd3e46"/><path d="m72.828125 99.808594h13.238281v13.242187h-13.238281zm0 0" fill="#143441"/><g fill="#195c85"><path d="m172.136719 79.949219v-79.449219l-79.449219 79.449219zm0 0"/><path d="m211.863281 185.878906h-39.726562c-3.652344 0-6.621094-2.964844-6.621094-6.621094s2.964844-6.621093 6.621094-6.621093h21.4375l-25.675781-21.394531c-2.808594-2.339844-3.191407-6.515626-.847657-9.324219 2.339844-2.8125 6.515625-3.191407 9.324219-.851563l39.722656 33.105469c2.8125 2.335937 3.195313 6.511719.855469 9.324219-1.257813 1.511718-3.125 2.382812-5.089844 2.382812zm0 0"/><path d="m139.035156 99.808594h13.242188v26.484375h-13.242188zm0 0"/><path d="m165.515625 99.808594h13.242187v26.484375h-13.242187zm0 0"/></g></svg>