<?xml version="1.0" encoding="iso-8859-1"?>
<!-- Generator: Adobe Illustrator 19.0.0, SVG Export Plug-In . SVG Version: 6.00 Build 0)  -->
<svg version="1.1" id="Layer_1" xmlns="http://www.w3.org/2000/svg" xmlns:xlink="http://www.w3.org/1999/xlink" x="0px" y="0px"
	 viewBox="0 0 450 450" style="enable-background:new 0 0 450 450;" xml:space="preserve">
<g id="XMLID_63_">
	<path id="XMLID_64_" style="fill:#EDEDED;" d="M375,387.25c0-196.061-128.939-351-325-351c-6.585,0-13.128,0.18-19.625,0.534l0,0
		C87.565,89.798,95,154.423,95,256.25c0,39.114-17.933,126.117-60,130L375,387.25z"/>
	<path id="XMLID_67_" style="fill:#D8D8DA;" d="M95,386.25c42.067-3.883,60-90.886,60-130c0-100.553-7.256-164.826-62.506-217.468
		C78.712,37.123,64.546,36.25,50,36.25c-6.585,0-13.128,0.18-19.625,0.534C87.565,89.798,95,154.423,95,256.25
		c0,39.114-17.933,126.117-60,130l340,1c0-0.059-0.002-0.117-0.002-0.176L95,386.25z"/>
	<path id="XMLID_68_" style="fill:#98C8ED;" d="M420,346.25c0,20.678-16.822,37.5-37.5,37.5s-37.5-16.822-37.5-37.5h-30
		c0,20.678-16.822,37.5-37.5,37.5s-37.5-16.822-37.5-37.5h-30c0,20.678-16.822,37.5-37.5,37.5s-37.5-16.822-37.5-37.5h-30
		c0,20.678-16.822,37.5-37.5,37.5S30,366.928,30,346.25H0c0,37.22,30.28,67.5,67.5,67.5c21.188,0,40.115-9.82,52.5-25.139
		c12.385,15.318,31.313,25.139,52.5,25.139s40.115-9.82,52.5-25.139c12.385,15.318,31.313,25.139,52.5,25.139
		s40.115-9.82,52.5-25.139c12.385,15.318,31.313,25.139,52.5,25.139c37.22,0,67.5-30.28,67.5-67.5H420z"/>
</g>
<g>
</g>
<g>
</g>
<g>
</g>
<g>
</g>
<g>
</g>
<g>
</g>
<g>
</g>
<g>
</g>
<g>
</g>
<g>
</g>
<g>
</g>
<g>
</g>
<g>
</g>
<g>
</g>
<g>
</g>
</svg>
