<?xml version="1.0" encoding="iso-8859-1"?>
<!-- Generator: Adobe Illustrator 19.0.0, SVG Export Plug-In . SVG Version: 6.00 Build 0)  -->
<svg version="1.1" id="Layer_1" xmlns="http://www.w3.org/2000/svg" xmlns:xlink="http://www.w3.org/1999/xlink" x="0px" y="0px"
	 viewBox="0 0 511.998 511.998" style="enable-background:new 0 0 511.998 511.998;" xml:space="preserve">
<path style="fill:#49CEAB;" d="M398,465.864c0,0-0.023,0-0.069,0.012c-38.025,10.728-84.589,20.349-135.254,27.297
	c-132.915,18.252-243.649,11.269-247.325-15.59c-3.687-26.848,101.032-63.398,233.9-81.639c0.046-0.012,0.069-0.012,0.069-0.012
	c132.915-18.241,243.649-11.269,247.324,15.59C498.928,428.127,459.705,448.453,398,465.864z"/>
<path style="fill:#3ABA96;" d="M397.931,465.875c-38.025,10.728-84.589,20.349-135.254,27.297
	c-132.915,18.252-243.649,11.269-247.325-15.59c-3.687-26.848,101.032-63.398,233.9-81.639
	c-2.869,0.645-96.803,21.997-92.459,63.974C161.161,502.126,393.345,466.578,397.931,465.875z"/>
<path style="fill:#F9E178;" d="M269.833,220.866c0,0,81.299,73.242,62.988,204.346c0,0-26.368-98.145-84.961-120.118
	c-58.593-21.973-69.58,144.288-69.58,144.288s-48.249-72.394-3.662-183.839c39.79-99.456-40.869-124.891-102.001-124.891
	c30.766-22.169,82.528-43.043,138.621,4.773c89.356,76.172,200.684,17.578,200.684,17.578S378.232,233.317,269.833,220.866"/>
<path style="fill:#F24141;" d="M326.514,320.4c-13.62,13.62-39.995,13.516-39.995,13.516c-10.843-12.64-23.702-23.207-38.659-28.818
	c-25.661-9.622-42.185,16.846-52.659,49.64c-22.665,0-38.636-12.133-38.636-12.133h-0.277c1.268-17.745,4.782-37.368,11.65-58.605
	l0.138-0.046c0,0,64.032-23.852,145.06,0C318.137,294.785,322.769,306.942,326.514,320.4z"/>
<circle style="fill:#F9E178;" cx="263.479" cy="109.107" r="58.248"/>
<path style="fill:#F2D546;" d="M311.199,79.328c0,0,26.969-59.837-31.148-69.95c-42.634-7.42-85.268,44.939-144.034,26.502
	c0,0,0.058,0.226,0.174,0.653c11.586,42.524,60.842,62.796,98.521,39.932C252.994,65.37,278.802,60.059,311.199,79.328z"/>
<g>
	<path style="fill:#D1B52C;" d="M281.827,66.246c0,0-20.751-20.572-62.233-17.691c0,0,24.852,4.842,28.846,21.433"/>
	<path style="fill:#D1B52C;" d="M160.249,39.823c0,0,13.83,17.95,27.657,17.95c0,0-35.449,4.762-51.716-21.24"/>
	<path style="fill:#D1B52C;" d="M281.234,69.917c0.02-0.017,0.045,0.01,0.063-0.046l0.053-0.199c0.035-0.136,0.076-0.26,0.1-0.426
		c0.052-0.317,0.124-0.622,0.164-0.958c0.092-0.665,0.172-1.345,0.212-2.042c0.108-1.391,0.105-2.808,0.039-4.236
		c-0.152-2.851-0.671-5.706-1.618-8.482c-0.263-0.673-0.472-1.409-0.792-2.069l-0.984-2.012c-0.347-0.673-0.792-1.266-1.196-1.924
		l-0.634-0.975l-0.741-0.883c-1.901-2.523-4.511-4.459-7.337-6.328c3.276,0.502,6.786,1.211,9.974,2.905l1.236,0.588l1.157,0.717
		c0.762,0.498,1.587,0.961,2.321,1.523l2.185,1.762c0.731,0.604,1.352,1.295,2.04,1.961c2.639,2.726,4.905,5.886,6.744,9.295
		c0.909,1.709,1.747,3.473,2.459,5.312c0.368,0.914,0.697,1.857,1.006,2.822c0.161,0.477,0.293,0.991,0.438,1.491
		c0.074,0.242,0.136,0.528,0.201,0.802l0.096,0.415c0.032,0.149,0.063,0.381,0.092,0.569L281.234,69.917z"/>
</g>
<path d="M264.491,119.741c-3.034,0.156-5.07,3.245-3.947,6.069c2.805,7.051,9.863,11.865,17.863,11.454
	c8.022-0.413,14.564-5.955,16.611-13.287c0.81-2.9-1.556-5.725-4.564-5.57L264.491,119.741z"/>
<path d="M505.209,410.348c-1.869-13.628-17.338-22.825-47.293-28.119c-24.974-4.413-59.462-6.006-99.743-4.609
	c-4.77,0.166-8.503,4.167-8.337,8.937c0.166,4.77,4.182,8.503,8.937,8.337c39.089-1.357,72.333,0.149,96.136,4.356
	c26.342,4.655,32.88,11.284,33.176,13.448c0.468,3.407-9.559,17.097-60.049,34.718c-43.668,15.24-102.811,28.45-166.535,37.195
	c-64.623,8.874-125.748,12.053-172.115,8.947c-4.768-0.32-8.882,3.283-9.2,8.045c-0.318,4.762,3.284,8.882,8.045,9.2
	c11.939,0.8,24.817,1.195,38.451,1.195c40.614,0,87.945-3.504,137.169-10.263c64.827-8.898,125.158-22.393,169.879-38
	C484.337,446.073,507.718,428.611,505.209,410.348z"/>
<path d="M65.928,491.238c-33.428-4.578-41.662-12.256-42.014-14.831c-0.338-2.459,5.145-11.669,34.183-24.593
	c24.321-10.824,58.237-21.301,98.44-30.433c6.544,20.611,14.141,32.177,14.551,32.794c1.629,2.444,4.35,3.85,7.191,3.85
	c0.741,0,1.49-0.096,2.23-0.293c3.578-0.955,6.15-4.085,6.394-7.779c0.573-8.66,1.853-21.408,3.98-35.714
	c19.299-3.679,39.318-6.956,59.613-9.745c21.459-2.943,42.755-5.274,63.413-6.955c7.044,17.005,10.519,29.745,10.565,29.915
	c1.066,3.968,4.777,6.637,8.881,6.384c4.102-0.254,7.456-3.361,8.024-7.43c9.775-69.982-8.482-123.743-25.518-156.518
	c-8.684-16.707-17.867-29.751-25.268-38.98c1.326,0.025,2.661,0.058,3.962,0.058c44.297-0.001,74.058-14.25,92.063-27.379
	c23.464-17.109,32.715-36.05,33.098-36.849c1.61-3.36,0.885-7.375-1.799-9.959c-2.685-2.585-6.722-3.158-10.02-1.423
	c-0.264,0.139-26.893,13.985-63.935,18.855c-20.944,2.753-40.712,2.169-59.224-1.701c26.49-8.905,45.632-33.954,45.632-63.406
	c0-11.664-3.01-23.002-8.73-33.055c3.525-10.795,8.391-32.346-1.096-50.237c-7.038-13.274-20.165-21.667-39.014-24.948
	c-21.07-3.665-40.867,4.944-61.821,14.061c-25.048,10.899-50.95,22.17-81.109,12.71c-2.982-0.934-6.236-0.18-8.511,1.963
	c-2.275,2.143-3.214,5.356-2.458,8.389c0,0,0.071,0.285,0.217,0.819c6.303,23.131,22.726,41.51,45.062,50.422
	c8.23,3.284,16.759,5.052,25.264,5.359c-1.046,4.725-1.586,9.575-1.586,14.518c0,5.631,0.708,11.099,2.023,16.327
	c-55.248-34.484-104.919-10.618-131.051,8.21c-3.042,2.193-4.323,6.097-3.172,9.666c1.152,3.569,4.474,5.987,8.225,5.987
	c18.602,0,64.493,2.75,88.796,28.224c10.839,11.363,15.912,26.132,15.075,43.901c-0.225,4.768,3.458,8.815,8.226,9.038
	c4.758,0.224,8.814-3.458,9.038-8.226c1.067-22.672-5.606-41.73-19.834-56.645c-19.392-20.326-48.973-28.491-72.636-31.665
	c28.687-12.797,65.377-15.144,104.35,18.079c38.448,32.775,87.064,46.381,140.583,39.346c14.614-1.921,27.687-5.11,38.454-8.417
	c-19.324,17.116-54.776,36.135-113.851,29.35c-4.754-0.546-9.027,2.858-9.572,7.599c-0.327,2.851,0.779,5.531,2.739,7.338
	c0.018,0.018,0.032,0.041,0.052,0.059c0.18,0.164,16.741,15.369,32.697,43.604c-4.117-0.895-8.246-1.723-12.378-2.42
	c-4.709-0.794-9.165,2.378-9.959,7.084c-0.794,4.706,2.377,9.165,7.084,9.959c8.528,1.439,17.055,3.366,25.422,5.686
	c3.434,7.819,6.751,16.566,9.663,26.192c-7.951,5.253-19.379,7.203-26.278,7.728c-11.129-12.219-24.215-22.418-39.395-28.11
	c-11.273-4.227-22.367-3.148-32.085,3.123c-11.685,7.539-21.617,22.836-29.69,45.632c-10.68-1.182-19.184-5.188-23.725-7.774
	c1.384-14.522,4.345-30.294,9.487-47.165c10.256-3.122,40.549-10.894,80.838-8.304c4.788,0.309,8.873-3.307,9.178-8.071
	c0.306-4.764-3.307-8.873-8.069-9.178c-32.675-2.098-59.12,2.12-75.096,5.843c0.307-0.786,0.595-1.565,0.91-2.355
	c2.933-7.331,5.321-14.505,7.098-21.324c1.203-4.618-1.565-9.338-6.183-10.542c-4.618-1.203-9.338,1.565-10.542,6.183
	c-1.595,6.121-3.755,12.601-6.419,19.263c-23.824,59.55-21.49,108.26-15.336,138.637c0.255,1.258,0.521,2.489,0.79,3.706
	c-41.009,9.347-75.787,20.135-100.98,31.347C19.268,450.175,4.785,464.155,6.79,478.753c2.048,14.969,20.625,24.654,56.793,29.608
	c0.398,0.054,0.793,0.081,1.183,0.081c4.252,0,7.959-3.14,8.551-7.47C73.965,496.243,70.657,491.885,65.928,491.238z
	 M263.482,158.709c-27.353,0-49.605-22.253-49.605-49.605c0-5.587,0.918-11.007,2.708-16.174c7.861-1.73,15.49-4.757,22.61-9.076
	c20.597-12.499,43.337-11.522,67.588,2.903c0.417,0.248,0.855,0.448,1.302,0.621c3.283,6.735,5.003,14.136,5.003,21.727
	C313.087,136.457,290.834,158.709,263.482,158.709z M150.074,47.775c29.058,3.657,54.06-7.222,76.534-17.002
	c19.313-8.404,35.99-15.662,51.962-12.882c13.289,2.313,22.265,7.685,26.68,15.967c5.644,10.589,3.508,24.253,1.092,33.056
	c-33.186-15.927-59.43-7.962-76.114,2.162c-15.426,9.36-33.981,10.853-50.909,4.097C166.704,68.139,156.532,59.2,150.074,47.775z
	 M321.089,334.682c3.26,14.704,5.425,31.039,5.707,48.896c-5.986-13.476-13.928-28.697-23.962-42.805
	C308.534,339.631,315.017,337.755,321.089,334.682z M228.18,314.648c5.151-3.324,10.44-3.79,16.646-1.462
	c27.59,10.346,47.664,40.432,59.644,63.85c0.651,1.271,1.28,2.535,1.898,3.794c-19.044,1.657-38.567,3.844-58.222,6.54
	c-18.4,2.528-36.577,5.455-54.218,8.714C200.289,362.174,211.179,325.618,228.18,314.648z M178.383,385.714
	c-2.234,10.956-3.942,21.518-5.229,30.768c-4.708-14.774-8.922-34.987-8.739-59.684c5.239,2.285,11.849,4.516,19.476,5.705
	C181.914,369.683,180.076,377.417,178.383,385.714z"/>
<path d="M257.307,92.688c-3.183-1.936-7.33-1.598-10.156,0.825c-5.976,5.124-2.161,15.188,5.648,15.188
	c3.914,0,7.398-2.746,8.362-6.523C262.086,98.563,260.499,94.629,257.307,92.688z"/>
<path d="M303.736,90.685c-3.219-1.707-7.254-1.188-9.934,1.279c-5.663,5.213-1.816,14.985,5.86,14.985
	c4.152,0,7.812-3.077,8.515-7.168C308.8,96.157,306.991,92.41,303.736,90.685z"/>
<g>
</g>
<g>
</g>
<g>
</g>
<g>
</g>
<g>
</g>
<g>
</g>
<g>
</g>
<g>
</g>
<g>
</g>
<g>
</g>
<g>
</g>
<g>
</g>
<g>
</g>
<g>
</g>
<g>
</g>
</svg>
