<?xml version="1.0" encoding="iso-8859-1"?>
<!-- Generator: Adobe Illustrator 19.0.0, SVG Export Plug-In . SVG Version: 6.00 Build 0)  -->
<svg version="1.1" id="Capa_1" xmlns="http://www.w3.org/2000/svg" xmlns:xlink="http://www.w3.org/1999/xlink" x="0px" y="0px"
	 viewBox="0 0 512.001 512.001" style="enable-background:new 0 0 512.001 512.001;" xml:space="preserve">
<path style="fill:#0387D8;" d="M480.04,503.64c-84.8,28.521-252.301-20.174-433.372-81.833c-16.402-5.6-19.965-27.205-6.206-37.746
	l29.242-22.357l-9.173-35.656c-4.315-16.778,11.837-31.572,28.187-25.836c3.416,1.201,6.832,2.403,10.238,3.604
	c37.474,13.237,74.05,26.557,108.902,40.023l50.178,20.08c7.062,2.915,14.02,5.85,20.863,8.797l6.592,2.977l41.925,18.962
	C399.628,429.151,454.779,465.121,480.04,503.64z"/>
<path style="fill:#0077B2;" d="M285.492,375.693l-27.518,17.844l-62.286,4.785l-37.767-4.785c0,0-20.539-49.238-58.964-89.721
	c37.474,13.237,74.05,26.557,108.902,40.023l50.178,20.08c7.062,2.915,14.02,5.85,20.863,8.797L285.492,375.693z"/>
<path style="fill:#F9DCA2;" d="M465.376,161.755c-1.598,7.532-6.143,13.644-12.181,17.426c-5.892,3.677-13.195,5.119-20.508,3.437
	l-80.694-18.596c-18.868-4.346-37.662,7.522-41.852,26.421l-11.293,50.93l73.35,73.36c9.706,9.705,9.706,25.439,0,35.134
	l-54.012,54.012c11.711,11.816,11.68,30.892-0.104,42.666l-3.939,3.949l-21.281-21.574l-0.157,0.136l-34.727-35.521l61.524-61.231
	l-40.19-40.201c-1.41-1.41-3.5-2.695-5.756-3.625c-2.246-0.94-4.649-1.504-6.634-1.504c-8.316,0-12.484,10.05-6.603,15.932
	l11.816,11.826c9.716,9.705,9.716,25.439,0,35.134l-54.096,53.908c11.795,11.816,11.795,30.955,0,42.771l-3.949,3.949
	l-21.291-21.574l-0.146,0.136l-34.737-35.521l61.534-61.231l-34.883-34.883c-13.383-13.393-20.905-31.551-20.905-50.481
	c0-3.698,0.334-7.397,1.024-11.032l14.198-75.993c4.325-18.763-7.376-37.474-26.129-41.799L72.372,99.594
	c-14.553-3.343-24.185-17.656-21.083-32.261c1.609-7.522,6.153-13.634,12.181-17.395c5.892-3.698,13.205-5.14,20.518-3.448
	l104.963,24.185l9.988,2.298l119.495,27.539l11.492,2.643h0.01l114.345,26.348C458.825,132.848,468.458,147.15,465.376,161.755z"/>
<g>
	<path style="fill:#E5C691;" d="M456.326,162.471c-5.894,3.678-13.197,5.117-20.507,3.433l-80.694-18.593
		c-18.864-4.346-37.658,7.521-41.852,26.421l-3.134,16.716c4.195-18.899,22.988-30.767,41.852-26.421l80.694,18.593
		c7.31,1.684,14.613,0.244,20.507-3.433c6.036-3.784,10.588-9.899,12.185-17.432c0.655-3.101,0.731-6.187,0.313-9.158
		C463.429,156.679,460.183,160.053,456.326,162.471z"/>
	<path style="fill:#E5C691;" d="M212.502,429.064l-27.858-28.492c-3.809-3.896-3.766-10.134,0.096-13.977l54.559-54.291
		l-34.884-34.884c-13.387-13.387-20.908-31.544-20.908-50.477c0-3.701,0.343-7.395,1.023-11.032l18.528-94.755
		c4.323-18.762-28.421-35.429-47.172-39.75L75.505,82.884C64.056,80.246,55.652,70.82,54.103,59.811
		c-1.271,2.297-2.236,4.818-2.813,7.528c-3.106,14.595,6.533,28.909,21.083,32.261l80.38,18.521
		c17.973,4.141,29.462,21.504,26.581,39.459l0.018-0.098c-0.136,0.835-0.285,1.654-0.465,2.435l-14.205,75.993
		c-0.68,3.638-1.023,7.332-1.023,11.032c0,18.932,7.521,37.09,20.908,50.477l34.884,34.884l-61.534,61.232l34.737,35.528
		l0.146-0.146l21.286,21.578l3.949-3.949c2.101-2.103,3.821-4.44,5.175-6.924l-10.559-10.704L212.502,429.064z"/>
	<path style="fill:#E5C691;" d="M312.711,428.918l-0.157,0.146l-27.849-28.493c-3.808-3.896-3.765-10.133,0.096-13.975
		l45.945-45.728c4.749-4.726,4.759-12.411,0.021-17.149l-31.611-31.611c-1.406-1.417-3.501-2.699-5.751-3.625
		c-2.25-0.937-4.647-1.511-6.637-1.511c-3.642,0-6.488,1.93-8.043,4.594c0.204,0.179,0.399,0.359,0.581,0.543l40.196,40.196
		l-61.524,61.232l34.727,35.528l0.157-0.146l21.276,21.578l3.949-3.949c2.104-2.102,3.826-4.439,5.181-6.923L312.711,428.918z"/>
</g>
<path style="fill:#D1AF7D;" d="M318.435,100.514c-12.056,30.307-44.756,48.12-77.529,40.567
	c-32.763-7.543-54.378-37.871-51.954-70.404l9.988,2.298L318.435,100.514z"/>
<circle style="fill:#F9DCA2;" cx="269.644" cy="67.229" r="67.217"/>
<path style="fill:#E22342;" d="M358.209,300.741l-49.833,16.622l-1.901,1.912l-27.173-27.173c-1.4-1.41-3.5-2.695-5.746-3.625
	c-2.257-0.93-4.649-1.504-6.644-1.504c-8.306,0-12.474,10.05-6.603,15.942l11.826,11.816l-52.685,17.572l-34.883-34.883
	c-13.393-13.393-20.915-31.551-20.915-50.481l135.187-5.558L358.209,300.741z"/>
<path style="fill:#E5C691;" d="M234.606,59.156c7.126-30.928,34.537-51.891,64.945-52.117c-4.621-2.291-9.57-4.099-14.815-5.308
	c-36.174-8.335-72.254,14.233-80.589,50.407s14.233,72.254,50.407,80.589c5.246,1.209,10.487,1.748,15.644,1.71
	C242.954,120.929,227.48,90.084,234.606,59.156z"/>
<path style="fill:#D67C05;" d="M335.148,82.324c-0.303,1.295-0.627,2.57-1.003,3.824c-9.549-7.971-16.684-18.45-20.644-30.172
	c-9.559,2.163-19.745,2.277-29.931-0.073c-10.51-2.424-19.86-7.198-27.643-13.623c-5.924,6.676-13.122,12.087-21.103,15.932
	c-9.873,4.764-20.957,7.146-32.355,6.592c0.146-4.189,0.71-8.42,1.682-12.662c8.337-36.179,44.411-58.745,80.59-50.408
	c5.203,1.201,10.113,2.967,14.699,5.234c0,0,0,0,0.01,0.01C326.759,20.456,342.273,51.348,335.148,82.324z"/>
<path style="fill:#C47605;" d="M299.554,7.041c-30.098,0.219-57.261,20.759-64.731,51.171c-9.873,4.764-20.957,7.146-32.355,6.592
	c0.146-4.189,0.71-8.42,1.682-12.662c8.337-36.179,44.411-58.745,80.59-50.408c5.203,1.201,10.113,2.967,14.699,5.234
	c0,0,0,0,0.01,0.01C299.481,7,299.523,7.02,299.554,7.041z"/>
<g>
	<path style="fill:#C9183A;" d="M234.336,327.34l-14.887,4.962l-34.883-34.883c-13.331-13.331-20.842-31.384-20.915-50.22
		c0.01-0.084,0.01-0.178,0.01-0.261l19.86-0.815c-0.01,0.272-0.01,0.543-0.01,0.815c0,18.93,7.512,37.088,20.905,50.481
		L234.336,327.34z"/>
	<path style="fill:#C9183A;" d="M320.4,313.351l-12.025,4.012l-1.901,1.912l-27.173-27.173c-0.178-0.178-0.376-0.366-0.575-0.543
		c1.557-2.664,4.398-4.586,8.044-4.586c1.985,0,4.377,0.575,6.634,1.504c2.246,0.93,4.346,2.215,5.746,3.625L320.4,313.351z"/>
</g>
<g>
	<path style="fill:#455256;" d="M294.794,101.59c-0.583,0-1.174-0.066-1.767-0.202c-4.216-0.972-6.848-5.178-5.877-9.395
		l1.963-8.519c0.973-4.218,5.177-6.845,9.395-5.877c4.217,0.972,6.848,5.178,5.877,9.395l-1.963,8.519
		C301.587,99.137,298.362,101.59,294.794,101.59z"/>
	<path style="fill:#455256;" d="M257.421,92.978c-0.583,0-1.174-0.066-1.767-0.202c-4.216-0.972-6.848-5.178-5.877-9.395
		l1.963-8.519c0.972-4.218,5.178-6.845,9.395-5.877c4.216,0.972,6.848,5.178,5.877,9.395L265.05,86.9
		C264.214,90.526,260.989,92.978,257.421,92.978z"/>
</g>
<g>
</g>
<g>
</g>
<g>
</g>
<g>
</g>
<g>
</g>
<g>
</g>
<g>
</g>
<g>
</g>
<g>
</g>
<g>
</g>
<g>
</g>
<g>
</g>
<g>
</g>
<g>
</g>
<g>
</g>
</svg>
