<svg height="511pt" viewBox="-13 1 511 511.999" width="511pt" xmlns="http://www.w3.org/2000/svg"><g fill-rule="evenodd"><path d="m103.523438 242.953125c3.613281 46.382813 27.195312 89.019531 64.59375 116.707031v.003906c1.480468 1.097657 2.980468 2.167969 4.507812 3.214844 12.542969 8.609375 25.207031 16.03125 41.027344 16.03125 14.015625 0 27.457031-5.566406 37.363281-15.476562 9.910156 9.910156 23.351563 15.476562 37.367187 15.476562 14.015626 0 27.453126-5.566406 37.363282-15.476562 9.910156 9.910156 23.351562 15.476562 37.367187 15.476562 14.011719 0 27.453125-5.566406 37.363281-15.476562 9.910157 9.910156 23.351563 15.476562 37.367188 15.476562 14.011719 0 27.453125-5.566406 37.363281-15.476562v34.28125-71.675782l-154.957031.308594c-60.398438 0-111.175781-41.191406-125.777344-97.007812-2.757812-10.535156-4.222656-21.59375-4.222656-32.992188 0-47.816406 27.464844-96.871094 71.804688-116.550781 0-3.410156.4375-6.804687 1.292968-10.105469-94.117187.273438-167.039062 80.636719-159.824218 173.261719zm0 0" fill="#53c9d8"/><path d="m262.054688 79.796875c0 22.199219 17.996093 40.191406 40.195312 40.191406 22.195312 0 40.191406-17.992187 40.191406-40.191406 0-11.992187-5.355468-23.359375-14.605468-30.996094-33.972657-24.035156-74.5625-36.945312-116.179688-36.945312-111.097656 0-201.15625 90.0625-201.15625 201.15625v220.21875c10.269531 10.269531 24.199219 16.039062 38.722656 16.039062 6.4375 0 12.757813-1.132812 18.695313-3.289062 6.992187-2.75 13.414062-6.921875 18.828125-12.335938.128906.128907.257812.253907.386718.382813.277344-.261719.546876-.53125.816407-.796875 10.269531 10.269531 24.203125 16.039062 38.726562 16.039062 11.199219 0 22.046875-3.433593 31.136719-9.710937 2.472656-1.765625 4.8125-3.738282 6.988281-5.914063l.089844.089844c10.34375 10.292969 24.339844 16.074219 38.9375 16.074219 14.636719 0 28.671875-5.816406 39.023437-16.164063 10.351563 10.347657 24.390626 16.164063 39.027344 16.164063 2.851563 0 5.683594-.222656 8.464844-.652344.058594.121094.117188.242188.179688.363281 11.609374-1.742187 22.4375-7.15625 30.839843-15.554687 6.511719 6.511718 14.484375 11.226562 23.144531 13.828125l.070313-.164063c4.945313 1.433594 10.109375 2.179688 15.351563 2.179688 14.457031 0 28.328124-5.671875 38.640624-15.78125.128907-.128906.257813-.253906.386719-.382813 5.414063 5.410157 11.835938 9.585938 18.824219 12.332031 5.9375 2.160157 12.261719 3.292969 18.699219 3.292969 14.523437 0 28.453125-5.769531 38.726562-16.039062v-69.800781c-9.910156 9.910156-23.351562 15.476562-37.367187 15.476562-14.011719 0-27.453125-5.566406-37.363282-15.476562-9.910156 9.910156-23.351562 15.476562-37.363281 15.476562-14.015625 0-27.457031-5.566406-37.367187-15.476562-9.910156 9.910156-23.351563 15.476562-37.363282 15.476562-14.015624 0-27.457031-5.566406-37.367187-15.476562-9.910156 9.910156-23.347656 15.476562-37.363281 15.476562-15.820313 0-28.484375-7.421875-41.03125-16.027344-43.460938-29.824218-69.585938-79.550781-69.585938-132.414062 0-88.617188 71.703125-160.519532 160.3125-160.773438-.859375 3.300782-1.292968 6.695313-1.292968 10.105469zm0 0" fill="#8eecf0"/><path d="m436.179688 446.09375c-14.636719 0-28.675782-5.8125-39.023438-16.164062-10.351562 10.351562-24.390625 16.164062-39.027344 16.164062-14.636718 0-28.675781-5.8125-39.027344-16.164062-10.347656 10.351562-24.386718 16.164062-39.023437 16.164062-14.640625 0-28.675781-5.8125-39.027344-16.164062-10.351562 10.351562-24.390625 16.164062-39.027343 16.164062-14.636719 0-28.675782-5.8125-39.023438-16.164062-10.351562 10.351562-24.390625 16.164062-39.027344 16.164062-14.636718 0-28.675781-5.8125-39.027344-16.164062-10.351562 10.351562-24.386718 16.164062-39.027343 16.164062-13 0-25.527344-4.585938-35.417969-12.863281v66.910156h464.707031v-70.210937c-10.351562 10.351562-24.390625 16.164062-39.027343 16.164062zm0 0" fill="#53c9d8"/><path d="m279.152344 32.125.421875.160156c1.148437.425782 2.328125.628906 3.484375.628906 4.058594 0 7.875-2.488281 9.375-6.519531 1.925781-5.175781-.710938-10.929687-5.886719-12.855469l-.289063-.109374c-5.164062-1.960938-10.9375.632812-12.898437 5.792968-1.964844 5.164063.628906 10.9375 5.792969 12.902344zm0 0"/><path d="m60.589844 324.105469c-5.117188 2.074219-7.582032 7.910156-5.503906 13.027343 6.207031 15.292969 18.488281 34.089844 31.917968 41.597657 1.542969.863281 3.21875 1.273437 4.871094 1.273437 3.503906 0 6.90625-1.847656 8.738281-5.125 2.695313-4.820312.96875-10.914062-3.851562-13.605468-7.589844-4.246094-17.542969-17.855469-23.144531-31.664063-2.078126-5.117187-7.910157-7.582031-13.027344-5.503906zm0 0"/><path d="m154.800781 205.3125c-5.433593-.988281-10.636719 2.636719-11.613281 8.070312-3.039062 16.910157.210938 42.894532 12.3125 59.828126 1.949219 2.730468 5.023438 4.1875 8.144531 4.1875 2.011719 0 4.042969-.605469 5.804688-1.863282 4.492187-3.210937 5.535156-9.457031 2.324219-13.949218-9.332032-13.058594-10.820313-33.980469-8.902344-44.664063.976562-5.4375-2.636719-10.636719-8.070313-11.609375zm0 0"/><path d="m212.035156 344.921875c1.652344 1.042969 3.492188 1.535156 5.3125 1.535156 3.324219 0 6.574219-1.65625 8.476563-4.675781 2.9375-4.675781 1.53125-10.851562-3.144531-13.789062-5.371094-3.378907-10.644532-7.714844-14.847657-12.210938-3.773437-4.03125-10.101562-4.246094-14.132812-.472656-4.035157 3.773437-4.246094 10.101562-.472657 14.136718 5.421876 5.796876 11.925782 11.148438 18.808594 15.476563zm0 0"/><path d="m92.398438 115.886719c-4.523438-3.167969-10.761719-2.066407-13.929688 2.457031-4.550781 6.503906-8.445312 13.972656-11.257812 21.597656-1.914063 5.183594.738281 10.933594 5.921874 12.84375 1.140626.421875 2.308594.621094 3.457032.621094 4.070312 0 7.894531-2.503906 9.382812-6.542969 2.195313-5.953125 5.347656-12.007812 8.878906-17.050781 3.167969-4.523438 2.070313-10.757812-2.453124-13.925781zm0 0"/><path d="m485.207031 431.371094v-69.792969s0-.003906 0-.007813v-37.390624c0-2.65625-1.054687-5.203126-2.933593-7.078126-1.878907-1.871093-4.417969-2.921874-7.066407-2.921874-.007812 0-.011719 0-.019531 0l-154.9375.308593c-66.167969 0-120-53.832031-120-120 0-40.824219 20.621094-78.476562 54.433594-100.507812 6.707031 19.835937 25.496094 34.152343 47.566406 34.152343 23.4375 0 42.914062-14.167968 48.460938-35.261718 5.078124-19.304688-1.652344-46.804688-35.773438-66.085938-4.808594-2.714844-10.90625-1.019531-13.625 3.789063-2.71875 4.808593-1.023438 10.90625 3.785156 13.625 24.222656 13.6875 29.453125 31.488281 26.269532 43.585937-3.25 12.359375-14.679688 20.347656-29.117188 20.347656-16.648438 0-30.195312-13.542968-30.195312-30.191406 0-2.5625.328124-5.117187.972656-7.59375.777344-3 .121094-6.191406-1.777344-8.644531-1.894531-2.441406-4.8125-3.867187-7.902344-3.867187-.007812 0-.019531 0-.027344 0-45.523437.128906-88.292968 17.953124-120.4375 50.1875-32.140624 32.238281-49.84375 75.0625-49.84375 120.582031 0 5.523437 4.476563 10 10 10 5.523438 0 10-4.476563 10-10 0-74.976563 55.167969-137.472657 127.050782-148.902344-37.265625 25.988281-59.839844 68.648437-59.839844 114.785156 0 77.195313 62.804688 140 140.019531 140l144.941407-.289062v22.972656c-7.675782 6.394531-17.253907 9.878906-27.367188 9.878906-11.441406 0-22.203125-4.457031-30.292969-12.546875-3.902343-3.902344-10.234375-3.90625-14.140625 0-8.09375 8.089844-18.851562 12.546875-30.296875 12.546875-11.441406 0-22.199219-4.457031-30.292969-12.546875-3.90625-3.90625-10.238281-3.90625-14.144531 0-8.089843 8.089844-18.847656 12.546875-30.292969 12.546875-11.441406 0-22.203124-4.457031-30.292968-12.546875-3.90625-3.90625-10.234375-3.90625-14.140625 0-8.09375 8.089844-18.851563 12.546875-30.292969 12.546875-7.511719 0-14.917969-1.984375-21.421875-5.738281-.039063-.023438-.078125-.039062-.117187-.058594-.042969-.023437-.078126-.050781-.121094-.074218-36.34375-19.691407-63.28125-53.894532-73.902344-93.839844-1.417969-5.335938-6.898438-8.519532-12.234375-7.09375-5.335937 1.417968-8.515625 6.894531-7.09375 12.234375 12.027344 45.242187 42.539063 83.984375 83.707031 106.285156.003906 0 .007813.003906.011719.003906 9.480469 5.414063 20.25 8.28125 31.171875 8.28125 13.636719 0 26.609375-4.316406 37.363281-12.296875 10.753907 7.980469 23.726563 12.296875 37.363281 12.296875 13.640626 0 26.613282-4.316406 37.367188-12.300781 10.75 7.984375 23.726562 12.300781 37.363281 12.300781 13.640625 0 26.613281-4.316406 37.367188-12.300781 10.75 7.984375 23.726562 12.300781 37.363281 12.300781 9.640625 0 18.941406-2.164062 27.367188-6.246093v46.167968c-8.042969 6.753906-18.101563 10.4375-28.726563 10.4375-11.957031 0-23.199219-4.65625-31.65625-13.109375-3.894531-3.894531-10.25-3.785156-14.148437.007813-8.453126 8.449218-19.691407 13.101562-31.648438 13.101562-5.519531 0-10 4.480469-10 10 0 5.523438 4.480469 10 10 10 14.148438 0 27.601562-4.507812 38.726562-12.84375 11.125 8.335938 24.578126 12.84375 38.726563 12.84375 10.132813 0 19.902344-2.324218 28.726563-6.699218v41.289062h-444.710938v-41.289062c8.820312 4.375 18.589844 6.703124 28.726562 6.703124 14.148438 0 27.601563-4.511718 38.726563-12.84375 11.121094 8.332032 24.574219 12.84375 38.722656 12.84375 14.152344 0 27.601563-4.511718 38.726563-12.84375 11.125 8.332032 24.578125 12.84375 38.726562 12.84375 14.148438 0 27.601563-4.511718 38.722656-12.84375 11.125 8.332032 24.578126 12.84375 38.726563 12.84375 5.660156 0 11.300781-.742187 16.765625-2.207031 5.332031-1.433593 8.5-6.914062 7.070312-12.25-1.433593-5.332031-6.910156-8.496093-12.25-7.070312-3.773437 1.015625-7.671874 1.527343-11.585937 1.527343-11.957031 0-23.199219-4.65625-31.652344-13.113281-3.90625-3.902343-10.238281-3.902343-14.144531 0-8.453125 8.457031-19.695312 13.113281-31.652344 13.113281-11.957031 0-23.195312-4.65625-31.652344-13.109374-3.851562-3.851563-10.289062-3.859376-14.144531-.003907-8.457031 8.457031-19.695312 13.113281-31.65625 13.113281-11.953125 0-23.195312-4.65625-31.648437-13.109374-3.851563-3.851563-10.289063-3.859376-14.148438-.003907-8.453125 8.457031-19.695312 13.113281-31.652344 13.113281-10.628906 0-20.683593-3.6875-28.726562-10.441406v-215.816406c0-105.402344 85.753906-191.15625 191.160156-191.15625h.078125c8.992188 0 18.070313.636719 26.988281 1.886719 5.464844.761719 10.523438-3.042969 11.292969-8.511719.769531-5.472656-3.042969-10.527344-8.511719-11.296875-9.835937-1.378906-19.851562-2.078125-29.765624-2.078125-.027344 0-.058594 0-.085938 0-116.433594 0-211.15625 94.726562-211.15625 211.15625v220.214844.003906 70.625c0 5.519531 4.476562 10 10 10h464.707031c5.519531 0 10-4.480469 10-10v-70.625zm0 0"/><path d="m331.324219 431.371094c0-6.066406-4.949219-11.015625-11.019531-11.015625-6.070313 0-11.019532 4.949219-11.019532 11.015625 0 6.070312 4.949219 11.019531 11.019532 11.019531 6.070312 0 11.019531-4.949219 11.019531-11.019531zm0 0"/></g></svg>